<svg xmlns="http://www.w3.org/2000/svg" width="900" height="470" viewBox="0 0 900 470">
<defs><marker id="arrow" markerWidth="10" markerHeight="8" refX="9" refY="4" orient="auto"><path d="M0,0 L10,4 L0,8 Z" fill="#334155"/></marker></defs>

<style>
  .bg{fill:#f8fafc}.panel{fill:#ffffff;stroke:#cbd5e1;stroke-width:1.2}
  .title{font:700 22px Arial,'Microsoft YaHei',sans-serif;fill:#0f172a}
  .label{font:600 13px Arial,'Microsoft YaHei',sans-serif;fill:#0f172a}
  .small{font:12px Arial,'Microsoft YaHei',sans-serif;fill:#475569}
  .muted{font:11px Arial,'Microsoft YaHei',sans-serif;fill:#64748b}
  .actor{stroke:#0f172a;stroke-width:1.6;fill:none}
  .usecase{fill:#eff6ff;stroke:#2563eb;stroke-width:1.4}
  .flow{fill:#ecfdf5;stroke:#059669;stroke-width:1.4}
  .warn{fill:#fff7ed;stroke:#ea580c;stroke-width:1.4}
  .classHead{fill:#e0f2fe;stroke:#0284c7;stroke-width:1.3}
  .classBody{fill:#ffffff;stroke:#0284c7;stroke-width:1.3}
  .line{stroke:#334155;stroke-width:1.3;fill:none;marker-end:url(#arrow)}
  .dash{stroke:#64748b;stroke-width:1.2;fill:none;stroke-dasharray:5 4;marker-end:url(#arrow)}
</style>

<rect class="bg" width="900" height="470"/>
<text x="490" y="45" class="title" text-anchor="middle">活动图：调用记录与计费统计流程</text>
<rect x="70" y="130" width="150" height="58" rx="8" class="flow"/><text x="145.0" y="164.0" class="label" text-anchor="middle">接收调用记录</text>
<rect x="260" y="130" width="150" height="58" rx="8" class="flow"/><text x="335.0" y="164.0" class="label" text-anchor="middle">读取模型价格</text>
<rect x="450" y="130" width="150" height="58" rx="8" class="flow"/><text x="525.0" y="164.0" class="label" text-anchor="middle">统计输入/输出 Token</text>
<rect x="640" y="130" width="150" height="58" rx="8" class="flow"/><text x="715.0" y="164.0" class="label" text-anchor="middle">判断缓存命中</text>
<rect x="640" y="300" width="150" height="58" rx="8" class="warn"/><text x="715.0" y="334.0" class="label" text-anchor="middle">应用折扣并计费</text>
<rect x="450" y="300" width="150" height="58" rx="8" class="warn"/><text x="525.0" y="334.0" class="label" text-anchor="middle">聚合工具调用</text>
<rect x="260" y="300" width="150" height="58" rx="8" class="warn"/><text x="335.0" y="334.0" class="label" text-anchor="middle">更新仪表盘</text>
<rect x="70" y="300" width="150" height="58" rx="8" class="warn"/><text x="145.0" y="334.0" class="label" text-anchor="middle">导出报表</text>
<path d="M220,159 L260,159" class="line"/>
<path d="M410,159 L450,159" class="line"/>
<path d="M600,159 L640,159" class="line"/>
<path d="M715,188 L715,300" class="line"/>
<path d="M640,329 L600,329" class="line"/>
<path d="M450,329 L410,329" class="line"/>
<path d="M260,329 L220,329" class="line"/>
</svg>
